<svg width="141" height="143" viewBox="0 0 141 143" fill="none" xmlns="http://www.w3.org/2000/svg">
<g clip-path="url(#clip0_35_59)">
<path d="M141 71.5C141 32.0119 109.436 0 70.5 0C31.5642 0 0 32.0119 0 71.5C0 107.187 25.781 136.768 59.4844 142.131V92.168H41.584V71.5H59.4844V55.7477C59.4844 37.828 70.0098 27.9297 86.1135 27.9297C93.8267 27.9297 101.895 29.3262 101.895 29.3262V46.9219H93.0049C84.2469 46.9219 81.5156 52.4335 81.5156 58.0882V71.5H101.068L97.9427 92.168H81.5156V142.131C115.219 136.768 141 107.188 141 71.5Z" fill="#1877F2"/>
<path d="M97.9427 92.168L101.068 71.5H81.5156V58.0882C81.5156 52.433 84.2469 46.9219 93.0049 46.9219H101.895V29.3262C101.895 29.3262 93.8267 27.9297 86.113 27.9297C70.0098 27.9297 59.4844 37.828 59.4844 55.7477V71.5H41.584V92.168H59.4844V142.131C63.1285 142.71 66.8115 143.001 70.5 143C74.1885 143.001 77.8715 142.71 81.5156 142.131V92.168H97.9427Z" fill="white"/>
</g>
<defs>
<clipPath id="clip0_35_59">
<rect width="141" height="143" fill="white"/>
</clipPath>
</defs>
</svg>
