<svg width="141" height="144" viewBox="0 0 141 144" fill="none" xmlns="http://www.w3.org/2000/svg">
<g clip-path="url(#clip0_35_70)">
<path d="M107.953 0.5H33.0469C14.7956 0.5 0 15.5055 0 34.0156V109.984C0 128.495 14.7956 143.5 33.0469 143.5H107.953C126.204 143.5 141 128.495 141 109.984V34.0156C141 15.5055 126.204 0.5 107.953 0.5Z" fill="url(#paint0_radial_35_70)"/>
<path d="M107.953 0.5H33.0469C14.7956 0.5 0 15.5055 0 34.0156V109.984C0 128.495 14.7956 143.5 33.0469 143.5H107.953C126.204 143.5 141 128.495 141 109.984V34.0156C141 15.5055 126.204 0.5 107.953 0.5Z" fill="url(#paint1_radial_35_70)"/>
<path d="M70.505 16.1406C55.5468 16.1406 53.6692 16.2071 47.7946 16.478C41.931 16.7506 37.9284 17.6918 34.4266 19.0732C30.8035 20.4999 27.7307 22.4086 24.6695 25.5144C21.6055 28.6196 19.7235 31.736 18.3124 35.4088C16.9464 38.9614 16.0173 43.0224 15.7534 48.9664C15.4907 54.9249 15.4219 56.8297 15.4219 72.0006C15.4219 87.1714 15.488 89.0695 15.7545 95.0275C16.0244 100.974 16.9525 105.034 18.3135 108.585C19.7213 112.26 21.6033 115.376 24.6656 118.481C27.7263 121.588 30.7991 123.501 34.4194 124.928C37.924 126.309 41.9271 127.251 47.7896 127.523C53.6648 127.794 55.5408 127.86 70.4983 127.86C85.4581 127.86 87.3297 127.794 93.2043 127.523C99.0679 127.251 103.075 126.309 106.579 124.928C110.201 123.501 113.269 121.588 116.329 118.481C119.393 115.376 121.275 112.26 122.687 108.587C124.04 105.034 124.97 100.973 125.245 95.0286C125.509 89.0706 125.578 87.1714 125.578 72.0006C125.578 56.8297 125.509 54.926 125.245 48.9675C124.97 43.0207 124.04 38.962 122.687 35.4104C121.275 31.736 119.393 28.6196 116.329 25.5144C113.266 22.4075 110.202 20.4988 106.576 19.0738C103.065 17.6918 99.0602 16.7501 93.1966 16.478C87.3214 16.2071 85.451 16.1406 70.4879 16.1406H70.505ZM65.5639 26.207C67.0306 26.2048 68.667 26.207 70.505 26.207C85.2114 26.207 86.954 26.2607 92.7615 26.5282C98.1316 26.7774 101.046 27.6873 102.988 28.452C105.558 29.4642 107.391 30.6747 109.317 32.6303C111.245 34.5854 112.438 36.4472 113.439 39.0541C114.193 41.0204 115.091 43.9765 115.336 49.4228C115.6 55.3115 115.657 57.08 115.657 71.9877C115.657 86.8955 115.6 88.6645 115.336 94.5527C115.09 99.9989 114.193 102.955 113.439 104.922C112.441 107.529 111.245 109.385 109.317 111.339C107.39 113.294 105.559 114.504 102.988 115.517C101.049 116.285 98.1316 117.192 92.7615 117.442C86.9551 117.709 85.2114 117.767 70.505 117.767C55.798 117.767 54.0548 117.709 48.249 117.442C42.8789 117.19 39.9641 116.28 38.021 115.516C35.451 114.503 33.6147 113.293 31.687 111.338C29.7593 109.383 28.5663 107.525 27.5655 104.917C26.8115 102.951 25.9132 99.9945 25.6686 94.5482C25.4048 88.6595 25.3519 86.891 25.3519 71.9737C25.3519 57.0565 25.4048 55.2975 25.6686 49.4088C25.9143 43.9625 26.8115 41.0064 27.5655 39.0374C28.5641 36.4304 29.7593 34.5686 31.6875 32.6136C33.6158 30.6585 35.451 29.448 38.0215 28.4336C39.963 27.6655 42.8789 26.7578 48.249 26.5076C53.3299 26.2746 55.299 26.2048 65.5639 26.1931V26.207ZM99.9057 35.4819C96.2567 35.4819 93.2963 38.4816 93.2963 42.1828C93.2963 45.8835 96.2567 48.886 99.9057 48.886C103.555 48.886 106.515 45.8835 106.515 42.1828C106.515 38.4821 103.555 35.4797 99.9057 35.4797V35.4819ZM70.505 43.314C54.8848 43.314 42.2201 56.1583 42.2201 72.0006C42.2201 87.8428 54.8848 100.681 70.505 100.681C86.1257 100.681 98.7859 87.8428 98.7859 72.0006C98.7859 56.1588 86.1246 43.314 70.5039 43.314H70.505ZM70.505 53.3804C80.6443 53.3804 88.8647 61.7163 88.8647 72.0006C88.8647 82.2837 80.6443 90.6207 70.505 90.6207C60.3656 90.6207 52.1458 82.2837 52.1458 72.0006C52.1458 61.7163 60.3651 53.3804 70.505 53.3804Z" fill="white"/>
</g>
<defs>
<radialGradient id="paint0_radial_35_70" cx="0" cy="0" r="1" gradientUnits="userSpaceOnUse" gradientTransform="translate(37.4531 154.514) rotate(-90) scale(141.724 129.971)">
<stop stop-color="#FFDD55"/>
<stop offset="0.1" stop-color="#FFDD55"/>
<stop offset="0.5" stop-color="#FF543E"/>
<stop offset="1" stop-color="#C837AB"/>
</radialGradient>
<radialGradient id="paint1_radial_35_70" cx="0" cy="0" r="1" gradientUnits="userSpaceOnUse" gradientTransform="translate(-23.6181 10.801) rotate(78.8353) scale(63.3173 257.621)">
<stop stop-color="#3771C8"/>
<stop offset="0.128" stop-color="#3771C8"/>
<stop offset="1" stop-color="#6600FF" stop-opacity="0"/>
</radialGradient>
<clipPath id="clip0_35_70">
<rect width="141" height="143" fill="white" transform="translate(0 0.5)"/>
</clipPath>
</defs>
</svg>
