<svg width="70" height="70" viewBox="0 0 70 70" fill="none" xmlns="http://www.w3.org/2000/svg">
<path d="M35.0002 5.8335C18.9585 5.8335 5.8335 18.9585 5.8335 35.0002C5.8335 51.0418 18.9585 64.1668 35.0002 64.1668C51.0418 64.1668 64.1668 51.0418 64.1668 35.0002C64.1668 18.9585 51.0418 5.8335 35.0002 5.8335ZM35.0002 58.3335C22.1377 58.3335 11.6668 47.8627 11.6668 35.0002C11.6668 22.1377 22.1377 11.6668 35.0002 11.6668C47.8627 11.6668 58.3335 22.1377 58.3335 35.0002C58.3335 47.8627 47.8627 58.3335 35.0002 58.3335ZM48.3877 22.1085L29.1668 41.3293L21.6127 33.8043L17.5002 37.9168L29.1668 49.5835L52.5002 26.2502L48.3877 22.1085Z" fill="#0aa016"/>
</svg>
