<svg width="200" height="200" viewBox="0 0 200 200" fill="none" xmlns="http://www.w3.org/2000/svg">
<path d="M100 16.667C83.5182 16.667 67.4066 21.5544 53.7025 30.7112C39.9984 39.868 29.3173 52.8829 23.01 68.11C16.7027 83.3372 15.0525 100.093 18.2679 116.258C21.4833 132.423 29.4201 147.272 41.0744 158.926C52.7288 170.58 67.5774 178.517 83.7425 181.732C99.9076 184.948 116.663 183.298 131.89 176.99C147.117 170.683 160.132 160.002 169.289 146.298C178.446 132.594 183.333 116.482 183.333 100C183.311 77.9057 174.524 56.7224 158.901 41.0991C143.278 25.4759 122.095 16.6891 100 16.667ZM149.492 80.942V86.3253C149.492 86.7373 149.409 87.1452 149.249 87.5248C149.089 87.9045 148.855 88.2481 148.559 88.5356C148.264 88.823 147.914 89.0483 147.531 89.1983C147.147 89.3483 146.737 89.4198 146.325 89.4087C137.526 88.787 129.109 85.5742 122.133 80.1753V119.575C122.131 123.936 121.261 128.252 119.573 132.273C117.884 136.293 115.412 139.937 112.3 142.992C109.163 146.126 105.431 148.603 101.324 150.278C97.2176 151.952 92.818 152.79 88.3833 152.742C79.4656 152.729 70.9063 149.23 64.5333 142.992C60.4783 138.904 57.5574 133.83 56.0583 128.27C54.5591 122.711 54.5333 116.856 55.9833 111.284C57.3083 105.934 59.9833 101.017 63.7583 97.0087C66.5736 93.5677 70.1223 90.7995 74.1449 88.9064C78.1676 87.0133 82.5625 86.0432 87.0083 86.067H93.8417V100.259C93.8447 100.671 93.7598 101.079 93.5927 101.456C93.4256 101.832 93.1801 102.169 92.8725 102.444C92.565 102.718 92.2025 102.924 91.8092 103.047C91.4159 103.17 91.0008 103.208 90.5917 103.159C86.6241 101.967 82.3488 102.362 78.667 104.261C74.9852 106.16 72.1845 109.415 70.8554 113.338C69.5262 117.262 69.7724 121.548 71.5421 125.294C73.3118 129.04 76.4666 131.952 80.3417 133.417C82.5917 134.709 85.1083 135.467 87.6917 135.642C89.6917 135.725 91.6917 135.475 93.5917 134.875C96.7636 133.805 99.5225 131.772 101.484 129.059C103.445 126.347 104.511 123.089 104.533 119.742V47.9503C104.533 47.1561 104.848 46.3943 105.409 45.8319C105.97 45.2696 106.731 44.9525 107.525 44.9503H119.317C120.083 44.9513 120.82 45.2453 121.376 45.7721C121.932 46.299 122.266 47.0187 122.308 47.7837C122.738 51.4606 123.906 55.0128 125.742 58.2275C127.577 61.4423 130.043 64.2532 132.992 66.492C136.976 69.4827 141.708 71.3166 146.667 71.792C147.409 71.8555 148.104 72.186 148.622 72.7222C149.14 73.2585 149.446 73.9641 149.483 74.7087L149.492 80.942Z" fill="black"/>
</svg>
