<svg width="141" height="143" viewBox="0 0 141 143" fill="none" xmlns="http://www.w3.org/2000/svg">
<path d="M3.00892 70.6444C3.00562 82.6592 6.12524 94.3907 12.0572 104.731L2.44162 140.061L38.3702 130.581C48.3076 136.025 59.4417 138.877 70.7561 138.878H70.7859C108.137 138.878 138.542 108.292 138.558 70.6982C138.565 52.4812 131.522 35.3511 118.725 22.4634C105.93 9.57676 88.9137 2.47609 70.7831 2.46777C33.4275 2.46777 3.0249 33.052 3.00948 70.6444" fill="url(#paint0_linear_35_64)"/>
<path d="M53.2484 41.098C51.9343 38.1588 50.5513 38.0995 49.3015 38.0479C48.2782 38.0036 47.1083 38.0069 45.9396 38.0069C44.7697 38.0069 42.869 38.4497 41.2623 40.2151C39.654 41.9821 35.1222 46.2521 35.1222 54.9369C35.1222 63.6216 41.4083 72.0154 42.2846 73.1943C43.162 74.371 54.4199 92.7637 72.2498 99.8394C87.068 105.72 90.0836 104.55 93.2996 104.255C96.5161 103.961 103.679 99.9863 105.14 95.8642C106.602 91.7427 106.602 88.2099 106.164 87.4716C105.725 86.7361 104.555 86.2943 102.801 85.4119C101.047 84.5296 92.4222 80.2584 90.8145 79.6692C89.2062 79.0806 88.0369 78.7868 86.867 80.5544C85.6972 82.3192 82.3379 86.2943 81.314 87.4716C80.2912 88.6516 79.2673 88.7985 77.5136 87.9156C75.7583 87.0298 70.1089 85.1681 63.4065 79.1549C58.1917 74.4758 54.6711 68.6976 53.6477 66.93C52.6244 65.1653 53.5381 64.2086 54.4177 63.329C55.2059 62.538 56.1725 61.2677 57.0505 60.2373C57.9251 59.2064 58.217 58.4709 58.802 57.2936C59.3874 56.1152 59.0944 55.0843 58.6566 54.2014C58.217 53.3184 54.8082 44.5882 53.2484 41.098Z" fill="white"/>
<defs>
<linearGradient id="paint0_linear_35_64" x1="6808.25" y1="13761.8" x2="6808.25" y2="2.46777" gradientUnits="userSpaceOnUse">
<stop stop-color="#1FAF38"/>
<stop offset="1" stop-color="#60D669"/>
</linearGradient>
</defs>
</svg>
